<svg width="21" height="20" viewBox="0 0 21 20" fill="none" xmlns="http://www.w3.org/2000/svg">
<path d="M11.5991 15.4954L11.5652 15.4609L11.5255 15.4331C8.35615 13.2142 7.52261 8.76992 9.60866 5.62033C9.67123 5.52848 9.89077 5.37544 10.2438 5.28604C10.592 5.19785 10.8829 5.21965 11.0145 5.28146C11.1789 5.35958 11.2757 5.47572 11.3238 5.62637C11.3755 5.78791 11.3817 6.02777 11.2792 6.34625C11.2393 6.46586 11.1974 6.58497 11.154 6.70868L11.1533 6.71057C11.1102 6.8332 11.0655 6.96042 11.0225 7.08955L11.0224 7.08951L11.0193 7.09929C10.9532 7.31142 10.8644 7.44437 10.7696 7.52777C10.6791 7.60737 10.5514 7.66995 10.3528 7.68993C10.1398 7.70803 9.91267 7.77418 9.72678 7.94989C9.54688 8.11993 9.46868 8.3341 9.42713 8.51305L9.42683 8.51433C9.06369 10.0963 9.35367 11.5671 10.3129 12.8883C10.3934 13.0005 10.5232 13.1601 10.7258 13.2563C10.9539 13.3646 11.1914 13.3564 11.41 13.2856L11.41 13.2856L11.4138 13.2843C11.6353 13.2107 11.7959 13.2232 11.9237 13.2714C12.0598 13.3226 12.2093 13.434 12.3657 13.6398L12.3656 13.6399L12.374 13.6504C12.4705 13.7709 12.5727 13.8864 12.6647 13.9903C12.6782 14.0056 12.6915 14.0207 12.7046 14.0354C12.8096 14.1544 12.9009 14.2601 12.9811 14.3674C13.1613 14.6146 13.1711 14.8586 13.0993 15.0401C13.0272 15.2222 12.8522 15.3933 12.5523 15.4496L12.5523 15.4496L12.5489 15.4502C12.472 15.4652 12.3777 15.4862 12.2944 15.5047C12.2449 15.5158 12.1992 15.526 12.1634 15.5335C12.0455 15.5582 11.9516 15.5736 11.8705 15.5778C11.7255 15.5853 11.6605 15.558 11.5991 15.4954Z" fill="white" stroke="white" stroke-width="1.05128"/>
<circle cx="10.9238" cy="10" r="9" stroke="white" stroke-width="2"/>
</svg>
