<svg width="41" height="40" viewBox="0 0 41 40" fill="none" xmlns="http://www.w3.org/2000/svg">
<mask id="mask0_339_386" style="mask-type:luminance" maskUnits="userSpaceOnUse" x="0" y="0" width="41" height="40">
<path d="M20.5 40C31.5457 40 40.5 31.0457 40.5 20C40.5 8.9543 31.5457 0 20.5 0C9.4543 0 0.5 8.9543 0.5 20C0.5 31.0457 9.4543 40 20.5 40Z" fill="white"/>
</mask>
<g mask="url(#mask0_339_386)">
<path d="M20.4997 40C31.5454 40 40.4997 31.0457 40.4997 20C40.4997 8.9543 31.5454 0 20.4997 0C9.45403 0 0.499725 8.9543 0.499725 20C0.499725 31.0457 9.45403 40 20.4997 40Z" fill="#FF7E36"/>
<path d="M23.7458 7.86956C23.7458 7.86956 24.7056 7.35388 25.384 7.98623C26.0624 8.61858 26.836 9.24996 27.3977 12.2696C27.9595 15.2892 28.1467 17.9813 28.9193 19.9235C29.6918 21.8656 30.3467 23.2245 30.2762 23.4353C30.2056 23.646 27.3977 26.15 25.1075 27.0862C22.8173 28.0225 22.486 10.8421 22.486 10.8421L23.7458 7.86956Z" fill="#153745"/>
<path d="M23.0486 10.9118C23.3996 9.81176 23.7506 7.87254 23.7506 7.87254C23.7506 7.87254 23.3525 6.53823 22.2055 6.28039C20.7996 5.96361 19.3257 6.19837 18.0878 6.93627C16.6369 7.80196 14.8349 9.62745 13.8516 12.7206C12.8682 15.8137 9.60842 23.0392 8.11038 25.1431C9.19276 25.7791 10.3284 26.3197 11.5045 26.7588C13.4937 27.5078 16.3496 28.2098 17.3094 28.3274C18.2692 28.4451 23.0486 10.9118 23.0486 10.9118Z" fill="#203D4A"/>
<path d="M17.3556 25.3775C16.8409 25.4245 16.4664 25.6588 16.0918 26.5481C15.7173 27.4373 13.935 28.7951 12.3467 29.6853C10.7585 30.5755 6.30753 32.8686 2.70361 38.9549C-0.90031 45.0412 -1.74443 52.4843 -0.526781 56.65C0.690866 60.8157 3.17126 63.251 6.30753 64.0471C9.44381 64.8432 15.9987 64.2814 19.2752 63.7657C22.5516 63.25 25.5948 61.8049 25.5948 61.8049C25.5948 61.8049 28.4507 63.8177 33.8301 63.3961C39.2095 62.9745 42.3036 58.102 42.585 53.2843C42.8664 48.4667 40.8997 42.5177 38.1369 38.351C35.3742 34.1843 30.9281 30.252 28.3997 28.7539C25.8713 27.2559 25.732 25.9922 25.6379 25.6167C25.5438 25.2412 25.1703 24.8677 24.0928 25.102C23.0154 25.3363 17.3556 25.3775 17.3556 25.3775Z" fill="#FDD5C5"/>
<path d="M11.088 38.5912C11.1576 39.4686 10.6399 40.4402 10.1399 41.2941C9.2968 42.7343 9.36739 44.0677 9.64974 45.2265C9.93209 46.3853 10.7615 48.2226 10.7615 48.2226M30.7801 38.4157C30.9909 39.5039 32.1841 40.9079 32.1841 42.453C32.1841 43.9981 31.6576 45.3677 31.1311 46.4206M15.7174 27.2147C16.5605 27.952 19.4742 29.3922 19.4742 29.3922C19.4742 29.3922 20.0713 27.6716 20.5978 27.7069C21.1243 27.7422 21.5458 27.8471 21.5458 28.4441C21.5458 29.0412 21.5811 29.7784 21.5811 29.7784C22.4666 29.5236 23.325 29.1824 24.1439 28.7598C24.9034 28.3608 25.6012 27.8539 26.2154 27.2549" stroke="#E59BAD" stroke-width="0.133333" stroke-linecap="round" stroke-linejoin="round"/>
<path d="M19.4742 29.3921C19.1232 30.3401 16.2438 36.9754 16.3497 37.2568C16.4556 37.5382 19.683 38.1695 20.0752 37.994C20.4673 37.8186 21.585 29.7784 21.585 29.7784M22.0683 29.6372C22.4193 30.3048 25.2987 33.6401 25.2281 34.097C25.1575 34.5538 21.6124 35.747 20.6644 35.8872M20.5977 27.7068L19.334 31.2882M21.1242 27.9176L20.3173 31.0774" stroke="#E59BAD" stroke-width="0.133333" stroke-linecap="round" stroke-linejoin="round"/>
<path d="M17.1664 20.4902C17.2644 21.403 17.3772 22.2696 17.284 23.5804C17.2345 24.3278 17.1326 25.0708 16.9791 25.804C16.9791 25.804 20.1164 27.8628 21.2399 27.8167C22.2929 27.7696 24.6105 26.2255 25.0546 25.8971C24.8075 24.842 24.6355 23.7707 24.5399 22.6912C24.4232 21.1226 24.5399 20.2098 24.5399 20.2098L17.1664 20.4902Z" fill="#B06232"/>
<path d="M23.0486 10.9119C23.0486 10.9119 21.9251 12.3638 20.4271 13.206C18.929 14.0481 17.7545 15.2187 17.332 17.0452C17.0784 18.1754 17.0223 19.341 17.1663 20.4903C17.1663 20.4903 18.5006 22.3795 21.029 22.4099C22.9712 22.4334 23.8192 21.806 24.4928 20.9589C25.2182 20.0462 25.6398 18.2903 25.6398 18.2903C25.6398 18.2903 27.1379 18.3374 27.4888 16.605C27.8398 14.8726 27.1379 14.1707 26.483 14.056C25.8281 13.9413 25.2653 14.6874 25.2653 14.6874C25.22 14.063 25.086 13.4484 24.8673 12.8619C24.4477 11.755 23.0486 10.9119 23.0486 10.9119Z" fill="#B87144"/>
<path d="M18.8732 15.7842C18.8732 16.0529 18.7751 16.1901 18.5732 16.1901C18.3712 16.1901 18.2722 16.0529 18.2722 15.7842C18.2722 15.5156 18.3702 15.3793 18.5732 15.3793C18.7761 15.3793 18.8732 15.5117 18.8732 15.7842ZM23.6016 15.8038C23.6016 16.0725 23.5036 16.2097 23.3016 16.2097C23.0996 16.2097 23.0006 16.0725 23.0006 15.8038C23.0006 15.5352 23.0987 15.3989 23.3016 15.3989C23.5045 15.3989 23.6016 15.5352 23.6016 15.8038Z" fill="black"/>
<path d="M20.633 16.0853C20.2821 16.249 19.8605 16.4128 19.837 16.8814C19.8134 17.35 20.586 17.7235 20.586 17.7235M26.4615 15.4647C26.284 15.851 25.8056 16.8628 25.8056 16.8628" stroke="#AC572A" stroke-width="0.133333" stroke-linecap="round" stroke-linejoin="round"/>
<g style="mix-blend-mode:multiply" opacity="0.5">
<path d="M23.5392 18.8364C23.1226 18.708 23.0069 18.3315 23.1961 17.7207C23.3853 17.1099 23.6932 16.8658 24.1098 16.9942C24.5265 17.1227 24.6432 17.5001 24.4539 18.1109C24.2647 18.7217 23.951 18.9658 23.5392 18.8364Z" fill="#F49B87"/>
</g>
<g style="mix-blend-mode:multiply" opacity="0.5">
<path d="M18.2663 18.8364C18.683 18.708 18.7987 18.3315 18.6094 17.7207C18.4202 17.1099 18.1124 16.8658 17.6947 16.9942C17.2771 17.1227 17.1624 17.5001 17.3516 18.1109C17.5408 18.7217 17.8536 18.9658 18.2663 18.8364Z" fill="#F49B87"/>
</g>
<path d="M19.5761 18.5667C19.682 18.2147 20.4251 18.3186 20.8927 18.2941C21.4026 18.2677 22.2594 18.3088 22.2947 18.6598C22.33 19.0108 21.6653 19.3382 20.832 19.3039C20.0467 19.2706 19.4447 19.0069 19.5761 18.5667Z" fill="#A94241"/>
<path d="M19.6614 18.601C20.4163 18.8883 21.5428 18.8883 22.1781 18.6245" stroke="#741E1F" stroke-width="0.133333" stroke-linecap="round" stroke-linejoin="round"/>
<path d="M22.3879 14.0951C23.1369 13.8147 24.0271 13.8618 24.4947 14.0726M19.9535 14.2157C19.6528 14.159 19.3458 14.1432 19.0408 14.1686" stroke="#010101" stroke-width="0.2" stroke-linecap="round" stroke-linejoin="round"/>
</g>
</svg>
