<svg width="17" height="15" viewBox="0 0 17 15" fill="none" xmlns="http://www.w3.org/2000/svg">
<path d="M15.62 4.36911L14.3078 1.83786C14.2244 1.67137 14.0934 1.53038 13.9297 1.43094C13.7659 1.3315 13.576 1.27759 13.3815 1.27536H3.38871C3.19422 1.27759 3.00429 1.3315 2.84055 1.43094C2.6768 1.53038 2.5458 1.67137 2.46246 1.83786L1.12058 4.36911C1.03063 4.5291 0.989637 4.70972 1.00223 4.8906C1.01481 5.07148 1.08048 5.24544 1.19183 5.39286L7.51527 14.1116C7.60996 14.2439 7.73739 14.3521 7.88643 14.427C8.03547 14.5018 8.20159 14.541 8.37027 14.541C8.53895 14.541 8.70507 14.5018 8.85411 14.427C9.00315 14.3521 9.13058 14.2439 9.22527 14.1116L15.5487 5.39286C15.6601 5.24544 15.7257 5.07148 15.7383 4.8906C15.7509 4.70972 15.7099 4.5291 15.62 4.36911ZM9.73589 2.11911L10.3296 4.40848H6.43464L7.02839 2.11911H9.73589ZM8.37027 12.7729L6.43464 5.27474H10.3059L8.37027 12.7729ZM5.52027 5.27474L7.36089 12.4072L2.20121 5.27474H5.52027ZM11.2203 5.27474H14.5393L9.37964 12.4072L11.2203 5.27474ZM13.4825 2.22036L14.67 4.43098H11.2203L10.6265 2.14161H13.3281C13.3594 2.13656 13.3916 2.14156 13.4196 2.15583C13.4475 2.1701 13.4697 2.19281 13.4825 2.22036ZM3.25808 2.22036C3.26953 2.1967 3.28794 2.17668 3.31112 2.16271C3.33429 2.14874 3.36124 2.14141 3.38871 2.14161H6.09027L5.49652 4.43098H2.08246L3.25808 2.22036Z" fill="url(#paint0_linear_339_433)" stroke="url(#paint1_linear_339_433)" stroke-width="0.7"/>
<defs>
<linearGradient id="paint0_linear_339_433" x1="1" y1="7.90816" x2="15.7405" y2="7.90816" gradientUnits="userSpaceOnUse">
<stop stop-color="#EFA94A"/>
<stop offset="1" stop-color="#FF5E63"/>
</linearGradient>
<linearGradient id="paint1_linear_339_433" x1="1" y1="7.90816" x2="15.7405" y2="7.90816" gradientUnits="userSpaceOnUse">
<stop stop-color="#EFA94A"/>
<stop offset="1" stop-color="#FF5E63"/>
</linearGradient>
</defs>
</svg>
