<svg width="139" height="51" viewBox="0 0 139 51" fill="none" xmlns="http://www.w3.org/2000/svg">
<path d="M22.0235 10.3955H23.4501L25.9625 20.1731L24.1198 20.7198C23.129 18.463 22.376 16.949 21.8609 16.178C21.0154 14.9305 19.9618 13.9423 18.7005 13.2132C17.4387 12.4845 16.0483 12.1198 14.5295 12.1198C12.7461 12.1198 11.1046 12.6285 9.60547 13.6456C8.10607 14.6628 6.89084 16.1534 5.95952 18.1175C5.02829 20.0815 4.56263 22.2913 4.56263 24.7466C4.56263 27.2718 5.03478 29.5236 5.97941 31.5019C6.92364 33.4801 8.20167 35.0022 9.8136 36.0684C11.425 37.1348 13.1622 37.6677 15.0249 37.6677C16.7815 37.6677 18.5783 37.1332 20.4145 36.0641C22.2504 34.995 23.8425 33.4971 25.1899 31.5699L26.775 32.7264C25.9558 34.0163 25.071 35.1097 24.1199 36.0066C22.614 37.4506 21.0485 38.5161 19.4238 39.2027C17.7988 39.8894 16.0155 40.2331 14.0737 40.2331C9.78039 40.2331 6.29292 38.5441 3.6115 35.1656C1.3922 32.362 0.282593 29.0256 0.282593 25.1568C0.282593 22.3112 0.896868 19.7354 2.12534 17.4294C3.3538 15.1236 5.04809 13.2907 7.20788 11.9308C9.36767 10.5713 11.696 9.89117 14.1926 9.89117C15.5267 9.89117 16.7652 10.084 17.9079 10.4694C19.0503 10.8551 20.2095 11.4754 21.3854 12.3303L22.0235 10.3955Z" fill="#223A74"/>
<path d="M39.5767 18.9316C41.5185 18.9316 43.1994 19.3594 44.6196 20.2143C46.0394 21.0695 47.159 22.317 47.9782 23.9571C48.7971 25.5972 49.2067 27.4686 49.2067 29.5713C49.2067 31.674 48.7871 33.5455 47.9484 35.1855C47.1094 36.8256 45.9669 38.0767 44.5205 38.9387C43.0739 39.8009 41.3467 40.2319 39.3389 40.2319C36.1418 40.2319 33.7411 39.1736 32.1362 37.0569C30.5312 34.9403 29.7286 32.452 29.7286 29.5923C29.7286 27.5037 30.1448 25.6497 30.9771 24.0307C31.8093 22.4116 32.9749 21.1572 34.4744 20.2669C35.9735 19.3768 37.6745 18.9316 39.5767 18.9316ZM39.4182 20.9712C37.9123 20.9712 36.6373 21.6019 35.594 22.8636C34.2729 24.4337 33.6126 26.7187 33.6126 29.7184C33.6126 32.6063 34.1738 34.8069 35.2968 36.3208C36.3139 37.6665 37.6944 38.3394 39.4381 38.3394C40.5607 38.3394 41.5614 38.0241 42.4401 37.3931C43.3185 36.7624 44.0284 35.7567 44.5701 34.3758C45.1117 32.9952 45.3827 31.3725 45.3827 29.5081C45.3827 27.686 45.0919 26.0527 44.5108 24.6088C44.0616 23.4595 43.3844 22.5659 42.4797 21.9278C41.5745 21.2903 40.5541 20.9712 39.4182 20.9712Z" fill="#223A74"/>
<path d="M50.8337 19.4367H59.9071V21.2029H59.3523C58.5994 21.2029 58.1303 21.2312 57.9455 21.287C57.6811 21.3711 57.4829 21.5046 57.3512 21.6865C57.2189 21.8688 57.153 22.086 57.153 22.3384C57.153 22.6889 57.2982 23.2567 57.589 24.0416L62.1167 36.006L66.5057 24.0416C66.783 23.2708 66.9218 22.71 66.9218 22.3594C66.9218 21.9951 66.7896 21.7112 66.5255 21.5078C66.2611 21.3047 65.7855 21.2029 65.0989 21.2029H64.1475V19.4366H71.9746V21.2029C71.4329 21.217 70.9805 21.308 70.6173 21.4762C70.2538 21.6445 69.97 21.8619 69.7653 22.1281C69.5604 22.3946 69.2533 23.0322 68.8439 24.0415L62.5161 39.7276H60.1375L53.7664 23.6831C53.5019 23.0247 53.2115 22.4853 52.8945 22.0647C52.6831 21.7985 52.4023 21.5883 52.0524 21.4342C51.7023 21.28 51.296 21.2029 50.8337 21.2029V19.4367Z" fill="#223A74"/>
<path d="M90.3605 34.3023L91.6287 35.3957C90.6643 36.6153 89.7295 37.5825 88.8249 38.2975C87.9199 39.0124 87.0645 39.5137 86.2588 39.8009C85.453 40.088 84.5083 40.2319 83.4253 40.2319C81.4835 40.2319 79.832 39.8114 78.4716 38.9703C76.9127 38.003 75.7173 36.7414 74.8851 35.1854C74.0528 33.6294 73.6367 31.7931 73.6367 29.6763C73.6367 27.4616 74.0394 25.5692 74.8454 23.9991C75.651 22.4293 76.7773 21.192 78.2238 20.2879C79.6704 19.3837 81.3447 18.9316 83.2469 18.9316C84.6602 18.9316 85.8888 19.1659 86.9325 19.6344C87.9758 20.1029 88.861 20.8093 89.5877 21.7533C90.314 22.6972 90.8426 23.7775 91.1729 24.994C91.3577 25.7073 91.4633 26.6302 91.4898 27.7631H77.4808C77.4413 28.4514 77.4214 28.9643 77.4214 29.3013C77.4214 31.0712 77.7118 32.6479 78.2932 34.0314C78.8744 35.4153 79.6438 36.4334 80.6016 37.0865C81.5592 37.7396 82.6457 38.0662 83.8612 38.0662C84.8915 38.0662 85.8888 37.8106 86.8532 37.2987C87.8174 36.7872 88.9865 35.7884 90.3605 34.3023ZM87.8242 25.8075C87.6261 24.5179 87.3453 23.5649 86.9821 22.9479C86.6186 22.3312 86.1035 21.8407 85.4365 21.476C84.7694 21.1116 84.0198 20.9292 83.1876 20.9292C82.3554 20.9292 81.5758 21.1116 80.8495 21.476C80.1228 21.8407 79.5185 22.3453 79.0364 22.9899C78.554 23.6349 78.1347 24.5741 77.7781 25.8075H87.8242Z" fill="#223A74"/>
<path d="M95.2937 22.4431V20.6979C96.255 20.6151 97.1111 20.4453 97.8619 20.189C98.6124 19.9328 99.4685 19.5135 100.43 18.9316H101.912V22.9057C102.85 21.6862 103.939 20.7189 105.181 20.004C106.423 19.2891 107.539 18.9316 108.53 18.9316C109.507 18.9316 110.28 19.177 110.848 19.6676C111.416 20.1584 111.7 20.7541 111.7 21.4549C111.7 21.9595 111.512 22.4047 111.136 22.7901C110.759 23.1758 110.306 23.3683 109.778 23.3683C109.54 23.3683 109.335 23.3335 109.164 23.2632C108.992 23.1932 108.741 23.0391 108.411 22.8006C107.684 22.2959 107.077 22.0437 106.588 22.0437C105.927 22.0437 105.201 22.338 104.408 22.9268C103.404 23.6838 102.618 24.427 102.05 25.1557V34.8491C102.05 35.6902 102.093 36.2615 102.179 36.5627C102.265 36.8644 102.407 37.1236 102.605 37.3407C102.803 37.5582 103.048 37.716 103.338 37.8138C103.629 37.9121 104.137 37.9611 104.864 37.9611H105.518V39.7274H95.2737V37.9611H96.1257C96.9313 37.9611 97.4598 37.8842 97.7109 37.7298C98.0542 37.5195 98.3085 37.2288 98.4737 36.8572C98.6388 36.4859 98.7215 35.8163 98.7215 34.8492V22.4431H95.2937Z" fill="#223A74"/>
<path d="M16.0694 47.1693C16.2698 46.8066 16.5418 46.5234 16.8858 46.3197C17.2297 46.1159 17.6063 46.014 18.0157 46.014C18.484 46.014 18.9006 46.1361 19.2657 46.38C19.6306 46.6242 19.8955 46.9701 20.0601 47.4177H19.1929C19.0789 47.1715 18.9206 46.9878 18.7182 46.867C18.5156 46.746 18.2815 46.6857 18.0157 46.6857C17.7244 46.6857 17.465 46.7551 17.2371 46.8939C17.0092 47.0328 16.831 47.2321 16.7022 47.4918C16.5735 47.7515 16.5092 48.0537 16.5092 48.3985C16.5092 48.7433 16.5734 49.0456 16.7022 49.3053C16.8309 49.5651 17.0091 49.7653 17.2371 49.9064C17.4649 50.0474 17.7244 50.118 18.0157 50.118C18.2814 50.118 18.5156 50.0576 18.7182 49.9367C18.9207 49.8158 19.079 49.6322 19.1929 49.386H20.0601C19.8955 49.8338 19.6306 50.1785 19.2657 50.4202C18.9006 50.662 18.484 50.7829 18.0157 50.7829C17.602 50.7829 17.2245 50.6811 16.8827 50.4774C16.5409 50.2736 16.2698 49.9904 16.0694 49.6277C15.8689 49.265 15.7687 48.8554 15.7687 48.3986C15.7687 47.9418 15.8689 47.532 16.0694 47.1693Z" fill="#A09F9F"/>
<path d="M22.0324 50.4836C21.6884 50.28 21.4162 49.9957 21.2158 49.6307C21.0154 49.2658 20.9153 48.8549 20.9153 48.3982C20.9153 47.9415 21.0155 47.5318 21.2158 47.1691C21.4161 46.8064 21.6884 46.5233 22.0324 46.3195C22.3763 46.1157 22.7528 46.0139 23.1621 46.0139C23.5757 46.0139 23.9543 46.1157 24.2983 46.3195C24.6422 46.5233 24.9131 46.8064 25.1116 47.1691C25.3099 47.5318 25.4091 47.9414 25.4091 48.3982C25.4091 48.855 25.3099 49.2658 25.1116 49.6307C24.9132 49.9958 24.6422 50.28 24.2983 50.4836C23.9542 50.6875 23.5757 50.7893 23.1621 50.7893C22.7528 50.7893 22.3763 50.6875 22.0324 50.4836ZM23.9406 49.9127C24.1685 49.7717 24.3468 49.5702 24.4756 49.3083C24.6041 49.0463 24.6686 48.743 24.6686 48.3981C24.6686 48.0534 24.6042 47.7512 24.4756 47.4914C24.3469 47.2317 24.1686 47.0324 23.9406 46.8935C23.7129 46.7548 23.4534 46.6853 23.1621 46.6853C22.8711 46.6853 22.6115 46.7548 22.3836 46.8935C22.1558 47.0324 21.9775 47.2317 21.8488 47.4914C21.7201 47.7512 21.6557 48.0533 21.6557 48.3981C21.6557 48.7429 21.72 49.0463 21.8488 49.3083C21.9774 49.5702 22.1558 49.7717 22.3836 49.9127C22.6115 50.0538 22.8711 50.1244 23.1621 50.1244C23.4534 50.1243 23.7129 50.0538 23.9406 49.9127Z" fill="#A09F9F"/>
<path d="M30.1614 46.0748L28.5094 50.7427H27.674L26.0156 46.0748H26.7879L28.0917 49.9569L29.4018 46.0748H30.1614Z" fill="#A09F9F"/>
<path d="M31.7384 46.6916V48.0618H33.2575V48.6864H31.7384V50.117H33.4474V50.7416H31.017V46.0669H33.4474V46.6915L31.7384 46.6916Z" fill="#A09F9F"/>
<path d="M36.8694 50.7427L35.8568 48.8756H35.3062V50.7427H34.5846V46.0748H36.1036C36.4411 46.0748 36.727 46.1375 36.9613 46.2627C37.1956 46.3882 37.3706 46.5561 37.4866 46.7665C37.6027 46.977 37.6607 47.212 37.6607 47.4717C37.6607 47.7762 37.5773 48.0526 37.4107 48.3012C37.244 48.5498 36.9877 48.7188 36.6417 48.8083L37.7304 50.7427H36.8694V50.7427ZM35.3061 48.2643H36.1036C36.3736 48.2643 36.5772 48.1928 36.7144 48.0494C36.8514 47.9061 36.9201 47.7136 36.9201 47.4718C36.9201 47.23 36.8526 47.0409 36.7175 46.9042C36.5824 46.7678 36.3778 46.6994 36.1036 46.6994H35.3061V48.2643Z" fill="#A09F9F"/>
<path d="M43.9981 46.0748L42.5425 49.0501V50.7427H41.8208V49.0501L40.3588 46.0748H41.1626L42.1816 48.3651L43.2006 46.0748H43.9981Z" fill="#A09F9F"/>
<path d="M45.6975 50.4836C45.3536 50.28 45.0815 49.9957 44.8811 49.6307C44.6806 49.2658 44.5804 48.8549 44.5804 48.3982C44.5804 47.9415 44.6806 47.5318 44.8811 47.1691C45.0815 46.8064 45.3536 46.5233 45.6975 46.3195C46.0415 46.1157 46.4181 46.0139 46.8274 46.0139C47.2408 46.0139 47.6195 46.1157 47.9634 46.3195C48.3074 46.5233 48.5783 46.8064 48.7768 47.1691C48.9751 47.5318 49.0743 47.9414 49.0743 48.3982C49.0743 48.855 48.9751 49.2658 48.7768 49.6307C48.5784 49.9958 48.3074 50.28 47.9634 50.4836C47.6194 50.6875 47.2408 50.7893 46.8274 50.7893C46.418 50.7893 46.0414 50.6875 45.6975 50.4836ZM47.6059 49.9127C47.8337 49.7717 48.0119 49.5702 48.1407 49.3083C48.2693 49.0463 48.3337 48.743 48.3337 48.3981C48.3337 48.0534 48.2694 47.7512 48.1407 47.4914C48.012 47.2317 47.8338 47.0324 47.6059 46.8935C47.378 46.7548 47.1185 46.6853 46.8274 46.6853C46.5362 46.6853 46.2767 46.7548 46.0488 46.8935C45.821 47.0324 45.6427 47.2317 45.514 47.4914C45.3853 47.7512 45.3209 48.0533 45.3209 48.3981C45.3209 48.7429 45.3852 49.0463 45.514 49.3083C45.6426 49.5702 45.8209 49.7717 46.0488 49.9127C46.2766 50.0538 46.5362 50.1244 46.8274 50.1244C47.1185 50.1244 47.3779 50.0538 47.6059 49.9127Z" fill="#A09F9F"/>
<path d="M50.7493 46.0748V49.0501C50.7493 49.4039 50.8367 49.6703 51.0119 49.8494C51.1871 50.0285 51.4307 50.118 51.743 50.118C52.0595 50.118 52.3053 50.0285 52.4805 49.8494C52.6555 49.6703 52.7431 49.4039 52.7431 49.0501V46.0748H53.4645V49.0368C53.4645 49.4173 53.3865 49.7398 53.2304 50.0039C53.0743 50.2681 52.8654 50.4651 52.6038 50.5949C52.342 50.7249 52.0531 50.7897 51.7366 50.7897C51.4201 50.7897 51.1321 50.7249 50.8726 50.5949C50.6131 50.4651 50.4074 50.2681 50.2555 50.0039C50.1036 49.7398 50.0277 49.4173 50.0277 49.0368V46.0748H50.7493Z" fill="#A09F9F"/>
<path d="M56.9405 50.7427L55.9278 48.8756H55.3773V50.7427H54.6556V46.0748H56.1747C56.5122 46.0748 56.7981 46.1375 57.0323 46.2627C57.2666 46.3882 57.4416 46.5561 57.5577 46.7665C57.6737 46.977 57.7317 47.212 57.7317 47.4717C57.7317 47.7762 57.6483 48.0526 57.4817 48.3012C57.315 48.5498 57.0587 48.7188 56.7128 48.8083L57.8014 50.7427H56.9405V50.7427ZM55.3772 48.2643H56.1746C56.4446 48.2643 56.6482 48.1928 56.7854 48.0494C56.9225 47.9061 56.9912 47.7136 56.9912 47.4718C56.9912 47.23 56.9236 47.0409 56.7885 46.9042C56.6535 46.7678 56.4488 46.6994 56.1746 46.6994H55.3772V48.2643Z" fill="#A09F9F"/>
<path d="M63.7622 48.7411C63.9268 48.9606 64.009 49.2091 64.009 49.4867C64.009 49.7241 63.9511 49.9379 63.835 50.1281C63.7189 50.3186 63.5512 50.4685 63.3318 50.5781C63.1124 50.688 62.8571 50.7427 62.5661 50.7427H60.8065V46.0748H62.4836C62.7832 46.0748 63.0406 46.1284 63.2559 46.236C63.471 46.3434 63.6335 46.4879 63.7433 46.6692C63.853 46.8506 63.9078 47.0532 63.9078 47.277C63.9078 47.5457 63.8403 47.7696 63.7053 47.9487C63.5701 48.1278 63.3888 48.2599 63.161 48.3449C63.3971 48.3897 63.5977 48.5218 63.7622 48.7411ZM61.5279 48.0359H62.4203C62.6566 48.0359 62.8412 47.9789 62.9741 47.8647C63.107 47.7504 63.1734 47.5859 63.1734 47.371C63.1734 47.1606 63.107 46.996 62.9741 46.8773C62.8412 46.7588 62.6566 46.6994 62.4203 46.6994H61.5279V48.0359ZM63.0786 49.93C63.2178 49.8046 63.2875 49.6301 63.2875 49.4061C63.2875 49.1777 63.2136 48.9965 63.0659 48.8621C62.9182 48.7278 62.722 48.6605 62.4774 48.6605H61.5279V50.118H62.5026C62.7473 50.118 62.9394 50.0555 63.0786 49.93Z" fill="#A09F9F"/>
<path d="M65.763 46.0748V49.0501C65.763 49.4039 65.8505 49.6703 66.0256 49.8494C66.2007 50.0285 66.4444 50.118 66.7567 50.118C67.0732 50.118 67.319 50.0285 67.4941 49.8494C67.6691 49.6703 67.7568 49.4039 67.7568 49.0501V46.0748H68.4782V49.0368C68.4782 49.4173 68.4002 49.7398 68.2441 50.0039C68.0879 50.2681 67.8791 50.4651 67.6175 50.5949C67.3558 50.7249 67.0669 50.7897 66.7503 50.7897C66.4338 50.7897 66.1458 50.7249 65.8863 50.5949C65.6269 50.4651 65.4211 50.2681 65.2692 50.0039C65.1173 49.7398 65.0414 49.4173 65.0414 49.0368V46.0748H65.763Z" fill="#A09F9F"/>
<path d="M70.3197 50.6249C70.0834 50.5152 69.8978 50.3596 69.7628 50.158C69.6277 49.9565 69.5602 49.7215 69.5602 49.4528H70.3324C70.3493 49.6544 70.4243 49.82 70.5571 49.9498C70.69 50.0797 70.8768 50.1446 71.1173 50.1446C71.3661 50.1446 71.5603 50.0807 71.6996 49.9531C71.8387 49.8255 71.9084 49.6609 71.9084 49.4595C71.9084 49.3029 71.8651 49.1752 71.7787 49.0767C71.6921 48.9782 71.5845 48.902 71.4559 48.8483C71.3271 48.7946 71.1489 48.7365 70.921 48.6737C70.634 48.5931 70.4009 48.5114 70.2216 48.4285C70.0422 48.3457 69.8893 48.2169 69.7627 48.0422C69.6361 47.8676 69.5728 47.6348 69.5728 47.3437C69.5728 47.0751 69.6361 46.84 69.7627 46.6385C69.8893 46.4369 70.0664 46.2825 70.2944 46.1751C70.5222 46.0677 70.7859 46.0139 71.0856 46.0139C71.5118 46.0139 71.8609 46.127 72.133 46.3531C72.4053 46.5793 72.556 46.8893 72.5856 47.2833H71.7881C71.7755 47.1132 71.6996 46.9676 71.5603 46.8467C71.4211 46.7258 71.2375 46.6654 71.0097 46.6654C70.8029 46.6654 70.6341 46.7214 70.5033 46.8333C70.3725 46.9453 70.307 47.1065 70.307 47.3169C70.307 47.4603 70.3483 47.5778 70.4305 47.6695C70.5129 47.7614 70.6172 47.8341 70.7439 47.8878C70.8704 47.9415 71.0435 47.9998 71.2629 48.0625C71.554 48.1476 71.7913 48.2327 71.9749 48.3177C72.1584 48.4028 72.3145 48.5339 72.4432 48.7106C72.5719 48.8876 72.6363 49.1237 72.6363 49.4192C72.6363 49.6566 72.5762 49.8805 72.456 50.0909C72.3357 50.3013 72.1606 50.4704 71.9306 50.5979C71.7006 50.7255 71.4294 50.7893 71.1173 50.7893C70.8219 50.7895 70.556 50.7347 70.3197 50.6249Z" fill="#A09F9F"/>
<path d="M74.4673 46.0748V50.7427H73.7457V46.0748H74.4673Z" fill="#A09F9F"/>
<path d="M79.2823 50.7416H78.5606L76.3898 47.2557V50.7416H75.6682V46.0669H76.3898L78.5606 49.546V46.0669H79.2823V50.7416Z" fill="#A09F9F"/>
<path d="M81.206 46.6916V48.0618H82.725V48.6864H81.206V50.117H82.915V50.7416H80.4845V46.0669H82.915V46.6915L81.206 46.6916Z" fill="#A09F9F"/>
<path d="M84.7058 50.6249C84.4694 50.5152 84.2838 50.3596 84.1489 50.158C84.0138 49.9565 83.9464 49.7215 83.9464 49.4528H84.7185C84.7354 49.6544 84.8103 49.82 84.9432 49.9498C85.0762 50.0797 85.2629 50.1446 85.5034 50.1446C85.7522 50.1446 85.9465 50.0807 86.0856 49.9531C86.2248 49.8255 86.2945 49.6609 86.2945 49.4595C86.2945 49.3029 86.2512 49.1752 86.1648 49.0767C86.0783 48.9782 85.9706 48.902 85.8419 48.8483C85.7132 48.7946 85.535 48.7365 85.3071 48.6737C85.0201 48.5931 84.787 48.5114 84.6076 48.4285C84.4283 48.3457 84.2755 48.2169 84.1488 48.0422C84.0223 47.8676 83.9588 47.6348 83.9588 47.3437C83.9588 47.0751 84.0222 46.84 84.1488 46.6385C84.2755 46.4369 84.4527 46.2825 84.6805 46.1751C84.9083 46.0677 85.172 46.0139 85.4717 46.0139C85.8978 46.0139 86.247 46.127 86.5191 46.3531C86.7914 46.5793 86.9421 46.8893 86.9717 47.2833H86.1743C86.1616 47.1132 86.0856 46.9676 85.9465 46.8467C85.8072 46.7258 85.6236 46.6654 85.3958 46.6654C85.189 46.6654 85.0202 46.7214 84.8895 46.8333C84.7586 46.9453 84.6933 47.1065 84.6933 47.3169C84.6933 47.4603 84.7344 47.5778 84.8166 47.6695C84.8989 47.7614 85.0033 47.8341 85.13 47.8878C85.2565 47.9415 85.4296 47.9998 85.649 48.0625C85.9401 48.1476 86.1775 48.2327 86.361 48.3177C86.5445 48.4028 86.7006 48.5339 86.8293 48.7106C86.958 48.8876 87.0225 49.1237 87.0225 49.4192C87.0225 49.6566 86.9623 49.8805 86.842 50.0909C86.7218 50.3013 86.5466 50.4704 86.3167 50.5979C86.0866 50.7255 85.8156 50.7893 85.5034 50.7893C85.2079 50.7895 84.9421 50.7347 84.7058 50.6249Z" fill="#A09F9F"/>
<path d="M88.7822 50.6249C88.5457 50.5152 88.3601 50.3596 88.2252 50.158C88.0901 49.9565 88.0227 49.7215 88.0227 49.4528H88.795C88.8117 49.6544 88.8866 49.82 89.0195 49.9498C89.1525 50.0797 89.3392 50.1446 89.5796 50.1446C89.8286 50.1446 90.0228 50.0807 90.1619 49.9531C90.3011 49.8255 90.3708 49.6609 90.3708 49.4595C90.3708 49.3029 90.3275 49.1752 90.2411 49.0767C90.1545 48.9782 90.047 48.902 89.9182 48.8483C89.7894 48.7946 89.6113 48.7365 89.3834 48.6737C89.0964 48.5931 88.8633 48.5114 88.6841 48.4285C88.5046 48.3457 88.3518 48.2169 88.2251 48.0422C88.0986 47.8676 88.0353 47.6348 88.0353 47.3437C88.0353 47.0751 88.0986 46.84 88.2251 46.6385C88.3518 46.4369 88.529 46.2825 88.7568 46.1751C88.9846 46.0677 89.2484 46.0139 89.548 46.0139C89.9741 46.0139 90.3233 46.127 90.5955 46.3531C90.8677 46.5793 91.0185 46.8893 91.0481 47.2833H90.2506C90.2379 47.1132 90.1619 46.9676 90.0228 46.8467C89.8835 46.7258 89.6999 46.6654 89.4721 46.6654C89.2653 46.6654 89.0965 46.7214 88.9658 46.8333C88.8349 46.9453 88.7696 47.1065 88.7696 47.3169C88.7696 47.4603 88.8107 47.5778 88.893 47.6695C88.9752 47.7614 89.0797 47.8341 89.2063 47.8878C89.333 47.9415 89.5059 47.9998 89.7253 48.0625C90.0164 48.1476 90.2538 48.2327 90.4373 48.3177C90.6208 48.4028 90.7769 48.5339 90.9056 48.7106C91.0343 48.8876 91.0988 49.1237 91.0988 49.4192C91.0988 49.6566 91.0386 49.8805 90.9183 50.0909C90.7981 50.3013 90.6229 50.4704 90.393 50.5979C90.1629 50.7255 89.8919 50.7893 89.5796 50.7893C89.2842 50.7895 89.0184 50.7347 88.7822 50.6249Z" fill="#A09F9F"/>
<path fill-rule="evenodd" clip-rule="evenodd" d="M130.618 20.6181C133.961 17.5525 137.321 14.009 138.263 8.49354C138.29 8.49354 138.318 8.49354 138.345 8.49354C138.345 7.99931 138.345 7.50499 138.345 7.01067C137.666 3.18322 134.975 1.07668 130.947 0.817524C125.629 0.475505 120.998 2.41536 117.549 4.65553C114.192 6.83587 111.167 10.3412 108.835 13.5527C107.672 15.1547 106.483 17.0279 105.509 19.1314C106.75 18.4173 107.866 18.0603 108.856 18.0603C109.833 18.0603 110.606 18.3057 111.174 18.7963C111.703 19.2532 111.985 19.801 112.022 20.4399C112.779 19.4328 113.565 18.4779 114.343 17.5653C117.5 13.8615 121.033 10.69 125.44 8.58085C126.077 8.2759 126.79 8.01213 127.33 7.53412C126.928 4.64655 123.689 4.76936 120.754 4.56839C123.346 4.25725 126.653 3.92744 127.988 5.52789C129.767 7.66017 127.18 11.6577 126.18 13.2039C123.487 17.3656 119.821 21.2101 116.48 24.4562C116.181 24.7465 115.695 25.2093 115.822 25.4157C120.323 26.2873 126.047 28.634 125.686 34.3129C125.618 35.3825 125.252 36.1715 125.111 36.9298C128.193 34.3283 130.828 30.4153 130.207 24.4562C132.333 31.9377 128.207 37.1972 123.796 40.3316C120.084 42.9694 115.376 45.308 109.986 45.0419C105.207 44.806 101.541 43.265 98.9092 40.6006H96.0565C99.1237 46.3412 104.707 49.4123 112.617 50.0139C113.329 50.0139 114.041 50.0139 114.754 50.0139C120.55 49.6617 125.742 47.9417 130.125 45.0419C134.127 42.3942 137.9 38.162 138.345 32.3939C138.345 31.8416 138.345 31.2891 138.345 30.7366C137.722 25.2629 134.386 22.6679 129.303 21.9266C129.52 21.3034 130.181 21.0187 130.618 20.6181Z" fill="url(#paint0_linear_339_351)"/>
<path fill-rule="evenodd" clip-rule="evenodd" d="M107.439 39.5463C107.439 39.6338 107.506 39.6502 107.521 39.7207C107.62 39.7023 107.572 39.624 107.521 39.5463C106.887 37.7438 106.638 35.8103 106.781 33.3531C106.985 29.8823 108.061 26.8818 109.535 24.2263C109.398 24.2102 109.272 24.1812 109.162 24.1362C108.99 24.0661 108.739 23.9122 108.409 23.6736C107.682 23.169 107.075 22.9166 106.586 22.9166C105.925 22.9166 105.199 23.2108 104.406 23.7996C104.183 23.968 103.972 24.1353 103.77 24.3022C103.658 24.8383 103.564 25.3835 103.493 25.9388C102.79 31.4452 104.521 35.8918 107.439 39.5463Z" fill="#EEA94A"/>
<path fill-rule="evenodd" clip-rule="evenodd" d="M95.2697 38.835H96.1217C96.6555 38.835 97.0668 38.801 97.3572 38.7334C94.7969 35.068 93.6228 29.9231 93.7097 23.5847C93.612 24.8767 93.5011 26.1546 93.3809 27.4227C93.3809 28.353 93.3809 29.2836 93.3809 30.2139C93.6018 33.5565 94.2356 36.4611 95.2697 38.941V38.835Z" fill="#DB3334"/>
<path fill-rule="evenodd" clip-rule="evenodd" d="M100.61 42.1455C99.3494 42.1455 98.1757 42.0769 96.9154 42.0769C94.8904 39.0212 93.6721 35.1094 93.3809 30.2139C93.3809 29.2836 93.3809 28.353 93.3809 27.4227C93.5011 26.1548 93.6121 24.8767 93.7097 23.5847C93.6132 32.2936 95.8597 38.5261 100.61 42.0583C100.61 42.0874 100.61 42.1166 100.61 42.1455Z" fill="#F16165"/>
<defs>
<linearGradient id="paint0_linear_339_351" x1="128.152" y1="1.73279" x2="111.327" y2="49.9874" gradientUnits="userSpaceOnUse">
<stop stop-color="#E7E74D"/>
<stop offset="1" stop-color="#F05254"/>
</linearGradient>
</defs>
</svg>
