<svg width="20" height="15" viewBox="0 0 20 15" fill="none" xmlns="http://www.w3.org/2000/svg">
<path d="M16.3056 13.712H3.53405C2.86222 13.7112 2.21813 13.444 1.74308 12.9689C1.26802 12.4938 1.00079 11.8498 1 11.1779V3.53405C1.00079 2.86222 1.26802 2.21813 1.74308 1.74308C2.21813 1.26802 2.86222 1.00079 3.53405 1H16.3056C16.9775 1.00079 17.6216 1.26802 18.0966 1.74308C18.5717 2.21813 18.8389 2.86222 18.8397 3.53405V11.1779C18.8389 11.8498 18.5717 12.4938 18.0966 12.9689C17.6216 13.444 16.9775 13.7112 16.3056 13.712ZM3.53405 1.89437C3.09918 1.89437 2.68212 2.06712 2.37462 2.37462C2.06712 2.68212 1.89437 3.09918 1.89437 3.53405V11.1779C1.89437 11.6128 2.06712 12.0299 2.37462 12.3374C2.68212 12.6449 3.09918 12.8176 3.53405 12.8176H16.3056C16.7405 12.8176 17.1576 12.6449 17.4651 12.3374C17.7726 12.0299 17.9453 11.6128 17.9453 11.1779V3.53405C17.9453 3.09918 17.7726 2.68212 17.4651 2.37462C17.1576 2.06712 16.7405 1.89437 16.3056 1.89437H3.53405Z" fill="white" stroke="white"/>
<path d="M9.91912 9.16599C9.36746 9.16685 8.83056 8.98788 8.38975 8.6562L1.42857 3.39134C1.37939 3.35682 1.33767 3.31275 1.3059 3.26174C1.27413 3.21074 1.25296 3.15386 1.24367 3.09449C1.23437 3.03513 1.23713 2.9745 1.25179 2.91623C1.26645 2.85795 1.2927 2.80323 1.32898 2.75533C1.36525 2.70743 1.41081 2.66733 1.46293 2.63743C1.51505 2.60753 1.57266 2.58843 1.63232 2.58129C1.69199 2.57415 1.75248 2.57911 1.81018 2.59587C1.86788 2.61263 1.92162 2.64084 1.96818 2.67883L8.92935 7.94965C9.21522 8.16304 9.56239 8.27833 9.91912 8.27833C10.2758 8.27833 10.623 8.16304 10.9089 7.94965L17.8701 2.67883C17.9166 2.64084 17.9704 2.61263 18.0281 2.59587C18.0858 2.57911 18.1463 2.57415 18.2059 2.58129C18.2656 2.58843 18.3232 2.60753 18.3753 2.63743C18.4274 2.66733 18.473 2.70743 18.5093 2.75533C18.5455 2.80323 18.5718 2.85795 18.5865 2.91623C18.6011 2.9745 18.6039 3.03513 18.5946 3.09449C18.5853 3.15386 18.5641 3.21074 18.5323 3.26174C18.5006 3.31275 18.4589 3.35682 18.4097 3.39134L11.4485 8.6562C11.0077 8.98788 10.4708 9.16685 9.91912 9.16599Z" fill="white" stroke="white"/>
<path d="M1.62167 12.4667C1.53097 12.4668 1.44238 12.4394 1.36764 12.388C1.29291 12.3366 1.23557 12.2637 1.20323 12.179C1.17088 12.0942 1.16507 12.0017 1.18656 11.9136C1.20805 11.8254 1.25583 11.7459 1.32355 11.6856L6.80901 6.79341C6.89757 6.71434 7.01391 6.67369 7.13243 6.6804C7.25096 6.68711 7.36197 6.74063 7.44103 6.82919C7.5201 6.91774 7.56075 7.03408 7.55404 7.15261C7.54733 7.27113 7.49381 7.38214 7.40526 7.46121L1.91979 12.3534C1.83833 12.4275 1.7318 12.468 1.62167 12.4667ZM18.2152 12.4667C18.1051 12.468 17.9985 12.4275 17.9171 12.3534L12.4316 7.46121C12.3431 7.38214 12.2895 7.27113 12.2828 7.15261C12.2761 7.03408 12.3168 6.91774 12.3958 6.82919C12.4749 6.74063 12.5859 6.68711 12.7044 6.6804C12.823 6.67369 12.9393 6.71434 13.0279 6.79341L18.5103 11.6856C18.5781 11.7459 18.6258 11.8254 18.6473 11.9136C18.6688 12.0017 18.663 12.0942 18.6307 12.179C18.5983 12.2637 18.541 12.3366 18.4663 12.388C18.3915 12.4394 18.3029 12.4668 18.2122 12.4667H18.2152Z" fill="white" stroke="white"/>
</svg>
