<svg width="20" height="19" viewBox="0 0 20 19" fill="none" xmlns="http://www.w3.org/2000/svg">
<path d="M17.62 6.36911L16.3078 3.83786C16.2244 3.67137 16.0934 3.53038 15.9297 3.43094C15.7659 3.3315 15.576 3.27759 15.3815 3.27536H5.38871C5.19422 3.27759 5.00429 3.3315 4.84055 3.43094C4.6768 3.53038 4.5458 3.67137 4.46246 3.83786L3.12058 6.36911C3.03063 6.5291 2.98964 6.70972 3.00223 6.8906C3.01481 7.07148 3.08048 7.24544 3.19183 7.39286L9.51527 16.1116C9.60996 16.2439 9.73739 16.3521 9.88643 16.427C10.0355 16.5018 10.2016 16.541 10.3703 16.541C10.539 16.541 10.7051 16.5018 10.8541 16.427C11.0031 16.3521 11.1306 16.2439 11.2253 16.1116L17.5487 7.39286C17.6601 7.24544 17.7257 7.07148 17.7383 6.8906C17.7509 6.70972 17.7099 6.5291 17.62 6.36911ZM11.7359 4.11911L12.3296 6.40848H8.43464L9.02839 4.11911H11.7359ZM10.3703 14.7729L8.43464 7.27474H12.3059L10.3703 14.7729ZM7.52027 7.27474L9.36089 14.4072L4.20121 7.27474H7.52027ZM13.2203 7.27474H16.5393L11.3796 14.4072L13.2203 7.27474ZM15.4825 4.22036L16.67 6.43098H13.2203L12.6265 4.14161H15.3281C15.3594 4.13656 15.3916 4.14156 15.4196 4.15583C15.4475 4.1701 15.4697 4.19281 15.4825 4.22036ZM5.25808 4.22036C5.26953 4.1967 5.28794 4.17668 5.31112 4.16271C5.33429 4.14874 5.36124 4.14141 5.38871 4.14161H8.09027L7.49652 6.43098H4.08246L5.25808 4.22036Z" fill="url(#paint0_linear_339_432)" stroke="url(#paint1_linear_339_432)" stroke-width="0.7"/>
<defs>
<linearGradient id="paint0_linear_339_432" x1="3" y1="9.90816" x2="17.7405" y2="9.90816" gradientUnits="userSpaceOnUse">
<stop stop-color="#EFA94A"/>
<stop offset="1" stop-color="#FF5E63"/>
</linearGradient>
<linearGradient id="paint1_linear_339_432" x1="3" y1="9.90816" x2="17.7405" y2="9.90816" gradientUnits="userSpaceOnUse">
<stop stop-color="#EFA94A"/>
<stop offset="1" stop-color="#FF5E63"/>
</linearGradient>
</defs>
</svg>
